<svg xmlns="http://www.w3.org/2000/svg" xmlns:xlink="http://www.w3.org/1999/xlink" version="1.1" x="0px" y="0px" viewBox="169.8 -662.6 256 256" style="enable-background:new 169.8 -662.6 256 256;" xml:space="preserve"><style type="text/css">.st0{fill:#0B3951;}.st1{fill:none;}.st2{fill:#BE1E2D;}.st3{fill:#21759B;}.st4{opacity:0.9;fill:#FFFFFF;}</style><rect x="169.8" y="-662.6" class="st0" width="256" height="256"/><g><g><g><line class="st1" x1="259.2" y1="-507.7" x2="297.8" y2="-529.9"/><polygon class="st2" points="259.2,-458.1 297.8,-480.6 297.8,-529.9 259.2,-507.7"/><g><line class="st1" x1="259.2" y1="-507.7" x2="297.8" y2="-529.9"/><polygon class="st3" points="259.2,-458.1 297.8,-480.6 297.8,-529.9 259.2,-507.7"/><polygon class="st4" points="259.2,-458.1 220.2,-480.6 220.2,-529.9 259.2,-507.7"/></g></g><g><line class="st1" x1="336.8" y1="-507.3" x2="375.4" y2="-529.9"/><polygon class="st3" points="297.8,-529.9 336.4,-552.4 375.4,-529.9 336.8,-507.3"/><polygon class="st4" points="336.8,-458.1 375.4,-480.6 375.4,-529.9 336.8,-507.3"/></g></g><g><line class="st1" x1="297.8" y1="-579.1" x2="336.4" y2="-601.4"/><polygon class="st3" points="259.2,-601.4 298.1,-623.9 336.4,-601.4 297.8,-579.1"/><polygon class="st4" points="297.8,-529.9 259.2,-552.1 259.2,-601.4 297.8,-579.1"/></g></g></svg>